<svg width="24" height="24" viewBox="0 0 24 24" fill="none" xmlns="http://www.w3.org/2000/svg">
<path d="M14.6219 17.8969L3.94189 14.9839" stroke="white" stroke-width="2" stroke-linecap="round" stroke-linejoin="round"/>
<path d="M18.3759 2.62222C18.573 2.42511 18.807 2.26875 19.0646 2.16207C19.3221 2.05539 19.5982 2.00049 19.8769 2.00049C20.1557 2.00049 20.4317 2.05539 20.6892 2.16207C20.9468 2.26875 21.1808 2.42511 21.3779 2.62222C21.575 2.81934 21.7314 3.05335 21.8381 3.31089C21.9447 3.56843 21.9996 3.84446 21.9996 4.12322C21.9996 4.40198 21.9447 4.67802 21.8381 4.93556C21.7314 5.1931 21.575 5.42711 21.3779 5.62422L17.3599 9.64322C17.2662 9.73699 17.2135 9.86414 17.2135 9.99672C17.2135 10.1293 17.2662 10.2565 17.3599 10.3502L18.3039 11.2942C18.7558 11.7462 19.0097 12.3591 19.0097 12.9982C19.0097 13.6373 18.7558 14.2503 18.3039 14.7022L17.3599 15.6462C17.2661 15.74 17.139 15.7926 17.0064 15.7926C16.8738 15.7926 16.7467 15.74 16.6529 15.6462L8.35391 7.34822C8.26018 7.25446 8.20752 7.12731 8.20752 6.99472C8.20752 6.86214 8.26018 6.73499 8.35391 6.64122L9.29791 5.69722C9.74987 5.24534 10.3628 4.99148 11.0019 4.99148C11.641 4.99148 12.254 5.24534 12.7059 5.69722L13.6499 6.64122C13.7437 6.73496 13.8708 6.78762 14.0034 6.78762C14.136 6.78762 14.2631 6.73496 14.3569 6.64122L18.3759 2.62222Z" stroke="white" stroke-width="2" stroke-linecap="round" stroke-linejoin="round"/>
<path d="M8.99992 8C7.19592 10.71 5.02992 11.46 2.41692 11.948C2.33024 11.9638 2.24918 12.002 2.18173 12.0587C2.11428 12.1154 2.06277 12.1887 2.03229 12.2713C2.0018 12.354 1.99339 12.4432 2.00788 12.5301C2.02237 12.617 2.05926 12.6987 2.11492 12.767L9.43492 21.65C9.5836 21.8079 9.77959 21.9132 9.99333 21.95C10.2071 21.9868 10.427 21.9531 10.6199 21.854C12.7349 20.405 15.9999 16.792 15.9999 15" stroke="white" stroke-width="2" stroke-linecap="round" stroke-linejoin="round"/>
</svg>
